<svg xmlns="http://www.w3.org/2000/svg" xmlns:xlink="http://www.w3.org/1999/xlink" viewBox="0 0 734.84 734.84">
<use xlink:href="#icon-logo-btc" data-v-c8a70580=""></use>
<symbol xmlns="http://www.w3.org/2000/svg" viewBox="0 0 734.84 734.84" id="icon-logo-btc">
  <defs>
    <style>
      #icon-logo-btc .d {
        fill: #fff;
      }

      #icon-logo-btc .d, #icon-logo-btc .e {
        stroke-width: 0px;
      }

      #icon-logo-btc .e {
        fill: #f7931a;
      }
    </style>
  </defs>
  <g id="icon-logo-btc_c" data-name="Layer 1">
    <g>
      <circle class="e" cx="367.42" cy="367.42" r="367.42"></circle>
      <g>
        <path class="d" d="M185.42,178.93c-7.62,28.42-15.23,56.84-22.85,85.26,22.37-10.2,41.51-8.96,61.4-11.04,7.53-28.09,15.05-56.18,22.58-84.27-21.21,0-38.85.18-61.13,10.05Z"></path>
        <path class="d" d="M354.2,188.36c-16.7-6.53-33.77-12.25-51.52-15.91-7.44,27.76-14.88,55.53-22.32,83.29,17.84,3.35,34.99,8.75,51.78,14.96,7.35-27.45,14.71-54.9,22.06-82.34Z"></path>
        <path class="d" d="M258.04,339.03l22.32-83.29c-17.98-3.37-36.66-4.66-56.4-2.59-7.53,28.09-15.05,56.18-22.58,84.27,19.82-2.4,38.59-1.43,56.66,1.62Z"></path>
        <path class="d" d="M139.72,349.45c-7.62,28.42-15.23,56.84-22.85,85.26,22.55-10.87,41.87-10.29,61.93-13.03,7.53-28.09,15.05-56.18,22.58-84.27-20.46,1.62-39.21,1.5-61.66,12.04Z"></path>
        <path class="d" d="M258.04,339.03c-7.44,27.76-14.88,55.53-22.32,83.29,18.01,2.71,35.33,7.48,52.29,13.06,7.35-27.45,14.71-54.9,22.06-82.34-16.87-5.9-34.11-10.99-52.03-14.01Z"></path>
        <path class="d" d="M178.81,421.68c-7.53,28.09-15.05,56.18-22.58,84.27,19.99-3.05,38.94-2.73,57.18-.33,7.44-27.76,14.88-55.53,22.32-83.29-18.15-2.73-37.01-3.37-56.92-.65Z"></path>
        <path class="d" d="M560.5,385.46c26.51-17.83,46.42-46.48,54.31-75.96,12.24-45.68-11.3-64.38-69.16-70.18l10.67-39.82c-12.46-.64-24.8-2.02-37.06-3.96-3.55,13.25-7.1,26.5-10.65,39.75-11.47-1.71-22.86-3.92-34.22-6.49,3.58-13.35,7.16-26.7,10.73-40.06-12.27-2.9-24.49-6.23-36.72-9.83-3.61,13.46-7.22,26.93-10.82,40.39-11.44-3.26-22.89-6.75-34.37-10.34-7.27,27.14-14.54,54.28-21.81,81.41-16.28-6.56-32.59-13.53-49.25-19.69-7.35,27.45-14.71,54.9-22.06,82.34,16.74,5.86,33.14,12.52,49.5,18.77-7.27,27.14-14.54,54.28-21.81,81.41-16.45-5.94-32.92-12.29-49.75-17.84-7.35,27.45-14.71,54.9-22.06,82.34,16.91,5.23,33.47,11.27,50,16.91h0c11.71,2.74,23.38,5.39,35.05,7.81-3.61,13.46-7.22,26.93-10.82,40.39,12.53,2.48,25.05,4.69,37.62,6.48,3.58-13.35,7.16-26.7,10.73-40.06,11.58,1.75,23.2,3.14,34.88,4.04-3.55,13.25-7.1,26.5-10.65,39.75,12.55.85,25.18,1.14,37.93.71,3.53-13.16,7.05-26.32,10.58-39.49,66.83-3.55,114.79-54.74,128.47-105.79,10.1-37.68-2.55-55.95-29.23-63.02ZM456.96,294.3c11.37,2.4,22.77,4.43,34.24,5.97,5.12.69,10.26,1.28,15.42,1.76.99.09,1.94.2,2.88.32.23.03.47.06.7.09.87.11,1.72.23,2.55.37.06,0,.11.02.17.03.91.15,1.78.32,2.64.49.15.03.3.06.45.1.81.17,1.61.35,2.37.55.03,0,.06.01.09.02.84.22,1.64.45,2.43.7.05.02.1.03.15.05,2.38.77,4.49,1.67,6.34,2.74,8.67,4.97,11.48,13.49,8.11,26.06-3.43,12.81-10.96,21.92-22.2,26.54-2.4.98-4.96,1.75-7.69,2.3-.06.01-.11.02-.17.04-.9.18-1.81.33-2.74.46-.03,0-.06,0-.1.01-.85.12-1.72.21-2.6.28-.16.01-.32.03-.48.04-.92.07-1.85.12-2.81.14-.06,0-.12,0-.18,0-.87.02-1.75.01-2.64,0-.24,0-.48-.01-.72-.02-.96-.03-1.93-.08-2.92-.16-5.18-.41-10.33-.93-15.48-1.55-11.52-1.38-22.96-3.26-34.37-5.5,5.52-20.6,11.04-41.2,16.56-61.8ZM478.71,489.15c-.8.12-1.62.23-2.44.32-.24.03-.48.05-.72.07-.6.06-1.21.11-1.82.16-.28.02-.57.04-.85.05-.61.04-1.23.06-1.85.08-.27,0-.53.02-.8.02-.88.02-1.77.02-2.67,0-8.97-.18-17.88-.71-26.74-1.52-11.6-1.06-23.13-2.61-34.63-4.52,5.81-21.67,11.61-43.34,17.42-65,11.45,2.08,22.94,3.79,34.5,5.02,8.83.94,17.71,1.59,26.64,1.89.9.03,1.78.07,2.64.12.26.02.52.03.78.05.6.04,1.2.08,1.79.13.28.02.55.05.82.07.59.05,1.16.12,1.73.18.23.03.46.05.68.08.77.1,1.53.2,2.27.32,17.45,2.7,24.53,11.64,19.64,29.87-4.84,18.08-17.41,29.59-36.38,32.6Z"></path>
      </g>
    </g>
  </g>
</symbol>
</svg>