<svg xmlns="http://www.w3.org/2000/svg" width="100%" viewBox="0 0 86 32" fill="none" class="logo_svg"><path d="M16 32C24.8366 32 32 24.8366 32 16C32 7.16344 24.8366 0 16 0C7.16344 0 0 7.16344 0 16C0 24.8366 7.16344 32 16 32Z" fill="var(--swatch--brand)"></path><path d="M15.1707 5.50391H10.2923C10.1244 5.50391 9.98828 5.64002 9.98828 5.80791V10.6863C9.98828 10.8542 10.1244 10.9903 10.2923 10.9903H15.1707C15.3386 10.9903 15.4747 10.8542 15.4747 10.6863V5.80791C15.4747 5.64002 15.3386 5.50391 15.1707 5.50391Z" fill="var(--swatch--light)"></path><path d="M9.99023 19.5212V24.3996C9.99023 24.5675 10.1263 24.7036 10.2942 24.7036H15.1726C15.3405 24.7036 15.4766 24.5675 15.4766 24.3996V19.5212C15.4766 19.3533 15.3405 19.2172 15.1726 19.2172H10.2942C10.1263 19.2172 9.99023 19.3533 9.99023 19.5212Z" fill="var(--swatch--light)"></path><path d="M9.98828 12.6653V17.5437C9.98828 17.7116 10.1244 17.8477 10.2923 17.8477H15.1707C15.3386 17.8477 15.4747 17.7116 15.4747 17.5437V12.6653C15.4747 12.4974 15.3386 12.3613 15.1707 12.3613H10.2923C10.1244 12.3613 9.98828 12.4974 9.98828 12.6653Z" fill="var(--swatch--light)"></path><path d="M16.8457 19.5217V24.4001C16.8457 24.568 16.9818 24.7041 17.1497 24.7041H22.0281C22.196 24.7041 22.3321 24.568 22.3321 24.4001V19.5217C22.3321 19.3538 22.196 19.2177 22.0281 19.2177H17.1497C16.9818 19.2177 16.8457 19.3538 16.8457 19.5217Z" fill="var(--swatch--light)"></path><path d="M16.8457 12.6638V17.5422C16.8457 17.7101 16.9818 17.8462 17.1497 17.8462H22.0281C22.196 17.8462 22.3321 17.7101 22.3321 17.5422V12.6638C22.3321 12.4959 22.196 12.3598 22.0281 12.3598H17.1497C16.9818 12.3598 16.8457 12.4959 16.8457 12.6638Z" fill="var(--swatch--light)"></path><path d="M42 8.5H49.5747C52.3161 8.5 53.7188 10.3217 53.7188 12.3232C53.7188 14.2118 52.5972 15.4713 51.2372 15.7643C52.7699 16.0111 54 17.5637 54 19.4522C54 21.7006 52.5544 23.5 49.8131 23.5H42.0015V8.5H42ZM48.9054 14.5255C49.9414 14.5255 50.5893 13.828 50.5893 12.8615C50.5893 11.8949 49.9414 11.2197 48.9054 11.2197H45.0638V14.5255H48.9054ZM49.0139 20.7787C50.1798 20.7787 50.8705 20.0812 50.8705 19.0016C50.8705 18.0573 50.2226 17.2468 49.0139 17.2468H45.0653V20.7771H49.0139V20.7787Z" fill="currentColor"></path><path d="M74 8.5H81.5747C84.3161 8.5 85.7188 10.3217 85.7188 12.3232C85.7188 14.2118 84.5972 15.4713 83.2372 15.7643C84.7699 16.0111 86 17.5637 86 19.4522C86 21.7006 84.5544 23.5 81.8131 23.5H74.0015V8.5H74ZM80.9054 14.5255C81.9414 14.5255 82.5893 13.828 82.5893 12.8615C82.5893 11.8949 81.9414 11.2197 80.9054 11.2197H77.0638V14.5255H80.9054ZM81.0139 20.7787C82.1798 20.7787 82.8705 20.0812 82.8705 19.0016C82.8705 18.0573 82.2226 17.2468 81.0139 17.2468H77.0653V20.7771H81.0139V20.7787Z" fill="currentColor"></path><path d="M63.9886 8.5C68.6262 8.5 72 11.6301 72 16C72 20.3699 68.6246 23.5 63.9886 23.5C59.3527 23.5 56 20.3699 56 16C56 11.6301 59.3754 8.5 63.9886 8.5ZM63.9886 11.2385C61.1655 11.2385 59.3511 13.2816 59.3511 15.9985C59.3511 18.7154 61.1655 20.7584 63.9886 20.7584C66.8118 20.7584 68.6489 18.6938 68.6489 15.9985C68.6489 13.3031 66.8118 11.2385 63.9886 11.2385Z" fill="currentColor"></path></svg>